<svg id="Layer_1" data-name="Layer 1" xmlns="http://www.w3.org/2000/svg" viewBox="0 0 24.18 24.18"><defs><style>.cls-1{fill: currentColor;}</style></defs><path id="Icon_awesome-hospital" data-name="Icon awesome-hospital" class="cls-1" d="M17.59,17.22v.49h-11v-.49a.29.29,0,0,1,.29-.3h.49V8.08A.6.6,0,0,1,8,7.49h2.16V5.72a.59.59,0,0,1,.59-.58h2.75a.58.58,0,0,1,.59.58V7.49h2.16a.59.59,0,0,1,.59.59v8.84h.49A.29.29,0,0,1,17.59,17.22ZM14.15,9.85h-1a.3.3,0,0,0-.3.29v1a.3.3,0,0,0,.3.29h1a.3.3,0,0,0,.3-.29v-1A.3.3,0,0,0,14.15,9.85ZM10,11.42h1a.29.29,0,0,0,.29-.29v-1A.29.29,0,0,0,11,9.85H10a.29.29,0,0,0-.3.29v1A.29.29,0,0,0,10,11.42Zm2.55,3.14h-1a.3.3,0,0,0-.3.3v2.06h1.57V14.86A.3.3,0,0,0,12.58,14.56Zm1.57-2.35h-1a.3.3,0,0,0-.3.29v1a.3.3,0,0,0,.3.3h1a.3.3,0,0,0,.3-.3v-1A.3.3,0,0,0,14.15,12.21Zm-2.85.29a.29.29,0,0,0-.29-.29H10a.29.29,0,0,0-.3.29v1a.29.29,0,0,0,.3.3h1a.29.29,0,0,0,.29-.3Zm-.24-5h.64v.64a.15.15,0,0,0,.14.15h.49a.15.15,0,0,0,.15-.15V7.49h.64a.15.15,0,0,0,.15-.14h0v-.5a.15.15,0,0,0-.15-.14h-.64V6.07a.15.15,0,0,0-.15-.15h-.49a.15.15,0,0,0-.14.15h0v.64h-.64a.15.15,0,0,0-.15.14h0v.5A.15.15,0,0,0,11.06,7.49Z"/></svg>