<svg id="Layer_1" data-name="Layer 1" xmlns="http://www.w3.org/2000/svg" viewBox="0 0 24.18 24.18"><defs><style>.cls-1{fill: currentColor;}</style></defs><g id="Icon_ionic-ios-more" data-name="Icon ionic-ios-more"><path id="Path_4" data-name="Path 4" class="cls-1" d="M12.08,10.9a1.26,1.26,0,0,0-1.33,1.19,1.34,1.34,0,0,0,2.67,0,1.27,1.27,0,0,0-1.34-1.19Z"/><path id="Path_5" data-name="Path 5" class="cls-1" d="M7.42,10.9a1.26,1.26,0,0,0-1.33,1.19,1.28,1.28,0,0,0,1.33,1.19,1.28,1.28,0,0,0,1.34-1.19A1.27,1.27,0,0,0,7.42,10.9Z"/><path id="Path_6" data-name="Path 6" class="cls-1" d="M16.75,10.9a1.26,1.26,0,0,0-1.33,1.19,1.34,1.34,0,0,0,2.67,0,1.27,1.27,0,0,0-1.34-1.19Z"/></g></svg>