<svg id="Layer_1" data-name="Layer 1" xmlns="http://www.w3.org/2000/svg" viewBox="0 0 24.18 24.18"><defs><style>.cls-1{fill: currentColor;}</style></defs><path class="cls-1" d="M19.84,20.72H4.34a2.61,2.61,0,0,1-2.61-2.61v-12A2.61,2.61,0,0,1,4.34,3.46h15.5a2.61,2.61,0,0,1,2.6,2.61v12A2.61,2.61,0,0,1,19.84,20.72ZM4.34,4.46A1.62,1.62,0,0,0,2.73,6.07v12a1.62,1.62,0,0,0,1.61,1.61h15.5a1.61,1.61,0,0,0,1.6-1.61v-12a1.61,1.61,0,0,0-1.6-1.61Z"/><rect class="cls-1" x="7.55" y="3.96" width="1" height="16.26"/><rect class="cls-1" x="3.69" y="6.37" width="2.91" height="1"/><rect class="cls-1" x="3.69" y="8.37" width="2.91" height="1"/><rect class="cls-1" x="3.69" y="10.37" width="2.91" height="1"/><rect class="cls-1" x="3.69" y="12.37" width="2.91" height="1"/><rect class="cls-1" x="3.69" y="14.37" width="2.91" height="1"/><rect class="cls-1" x="3.69" y="16.37" width="2.91" height="1"/></svg>