<svg fill="#ff0000" stroke="#ff0000" version="1.1" viewBox="0 0 24 24" xmlns="http://www.w3.org/2000/svg">
 <path d="m23.515 16.972c-1.0328-0.9711-2.9654-2.432-2.9654-7.2173 0-3.6346-2.9125-6.5441-6.8396-7.258v-0.97484c0-0.82655-0.76554-1.4969-1.7096-1.4969-0.9441 0-1.7096 0.67032-1.7096 1.4969v0.97484c-3.9271 0.71383-6.8396 3.6234-6.8396 7.258 0 4.7853-1.9326 6.2462-2.9654 7.2173-0.32076 0.30171-0.46296 0.66237-0.46029 1.0155 0.00588 0.76714 0.69391 1.4969 1.7161 1.4969h20.518c1.0221 0 1.7107-0.72973 1.7161-1.4969 0.0027-0.35317-0.13953-0.71429-0.46029-1.0155zm-19.88 0.2671c1.1344-1.3084 2.3747-3.477 2.3806-7.4572 0-9e-3 -0.0032-0.0178-0.0032-0.0271 0-2.8936 2.6805-5.2391 5.9875-5.2391 3.307 0 5.9875 2.3454 5.9875 5.2391 0 9e-3 -0.0032 0.0178-0.0032 0.0271 0.0058 3.9807 1.2461 6.1493 2.3806 7.4572zm8.3648 6.7359c1.8882 0 3.4198-1.3402 3.4198-2.9938h-6.8396c0 1.6536 1.5316 2.9938 3.4198 2.9938z" fill="#666" stroke-width=".050007"/>
</svg>
