<svg version="1.1" viewBox="0 0 26.436 31.302" xmlns="http://www.w3.org/2000/svg">
 <path d="m13.218 1.0001c-0.9733 0-1.7659 0.8013-1.7659 1.7943v1.1309c-3.9962 0.85246-6.964 4.284-6.964 8.5775 0 2.8177-0.49058 4.6542-1.1116 5.9287-0.62105 1.2745-1.3722 1.9875-1.8991 2.5613-0.33123 0.36086-0.48004 0.79625-0.47726 1.2208 0.0061 0.92217 0.72096 1.7943 1.7738 1.7943h20.89c1.0528 0 1.7663-0.87205 1.7718-1.7943 0.0029-0.42456-0.14403-0.86046-0.47528-1.2208h-0.0022c-9.98e-4 -1e-3 -0.0029-0.0037-4e-3 -0.0045l-0.0022-0.0024c-0.52651-0.57296-1.2737-1.2836-1.893-2.5544-0.62104-1.2745-1.1116-3.1111-1.1116-5.9287 0-4.2944-2.9666-7.7282-6.964-8.5798v-1.1287c2.73e-4 -0.99295-0.79235-1.7943-1.7656-1.7943z" color="#000000" color-rendering="auto" dominant-baseline="auto" fill="none" image-rendering="auto" shape-rendering="auto" solid-color="#000000" stroke="#4d4d4d" stroke-linecap="round" stroke-linejoin="round" stroke-width="2" style="font-feature-settings:normal;font-variant-alternates:normal;font-variant-caps:normal;font-variant-ligatures:normal;font-variant-numeric:normal;font-variant-position:normal;isolation:auto;mix-blend-mode:normal;shape-padding:0;text-decoration-color:#000000;text-decoration-line:none;text-decoration-style:solid;text-indent:0;text-orientation:mixed;text-transform:none;white-space:normal"/>
 <path d="m9.6805 26.852c0 1.2686 0.65897 3.4864 3.5403 3.5029 2.9712 0.01701 3.5715-2.2343 3.5715-3.5029-1.5004-0.02466-5.7869-0.02341-7.1118 0z" color="#000000" color-rendering="auto" dominant-baseline="auto" fill="none" image-rendering="auto" shape-rendering="auto" solid-color="#000000" stroke="#4d4d4d" stroke-linecap="round" stroke-linejoin="round" stroke-width="1.5" style="font-feature-settings:normal;font-variant-alternates:normal;font-variant-caps:normal;font-variant-ligatures:normal;font-variant-numeric:normal;font-variant-position:normal;isolation:auto;mix-blend-mode:normal;shape-padding:0;text-decoration-color:#000000;text-decoration-line:none;text-decoration-style:solid;text-indent:0;text-orientation:mixed;text-transform:none;white-space:normal"/>
</svg>
