<svg id="Layer_1" data-name="Layer 1" xmlns="http://www.w3.org/2000/svg" viewBox="0 0 265.46 145"><title>oui-logo-light-bg</title><path d="M71.8,72.37A37.33,37.33,0,0,1,76.15,59.2,35.23,35.23,0,0,1,95.66,42.79a40.37,40.37,0,0,1,13.45-2.2,34.61,34.61,0,0,1,12.75,2.25,24.83,24.83,0,0,1,9.41,6.4,24.4,24.4,0,0,1,5.37,10.07,32.4,32.4,0,0,1,.58,13.19,38.24,38.24,0,0,1-4.31,13.18,34.94,34.94,0,0,1-8.24,10,36.37,36.37,0,0,1-11.27,6.36,40,40,0,0,1-13.41,2.2A34.91,34.91,0,0,1,87.2,102,23.78,23.78,0,0,1,72.37,85.56,32.24,32.24,0,0,1,71.8,72.37Zm13.87,0a20.71,20.71,0,0,0,.24,7.83,15.69,15.69,0,0,0,2.94,6.18,14.16,14.16,0,0,0,5.35,4.07A18.07,18.07,0,0,0,101.73,92a21.34,21.34,0,0,0,8-1.44,20.63,20.63,0,0,0,6.51-4.05,22.17,22.17,0,0,0,4.68-6.16,24.25,24.25,0,0,0,2.46-7.83,21.69,21.69,0,0,0-.2-7.79,14.69,14.69,0,0,0-3-6.21,14.42,14.42,0,0,0-5.38-4.08,18.15,18.15,0,0,0-7.54-1.47,21.25,21.25,0,0,0-8,1.44,20.74,20.74,0,0,0-6.52,4,22.45,22.45,0,0,0-4.68,6.2A24.55,24.55,0,0,0,85.67,72.4Z" style="fill:#1b2431"/><path d="M196.45,79.55a32.43,32.43,0,0,1-3,9.92,26.49,26.49,0,0,1-6,7.87,26.8,26.8,0,0,1-8.74,5.21,32.14,32.14,0,0,1-11.31,1.86,28.33,28.33,0,0,1-10.87-1.91,18.15,18.15,0,0,1-7.27-5.23,18.37,18.37,0,0,1-3.71-7.89,27.79,27.79,0,0,1-.19-9.93l5.29-37.24,13.36,0L158.78,79a13.74,13.74,0,0,0,.12,5.22,10.21,10.21,0,0,0,2,4.16,9.8,9.8,0,0,0,3.51,2.75,11,11,0,0,0,4.75,1,12.85,12.85,0,0,0,5-1,14.35,14.35,0,0,0,4.24-2.74,15,15,0,0,0,3.13-4.14A16.82,16.82,0,0,0,183.18,79l5.21-36.73,13.36,0Z" style="fill:#20c981"/><path d="M213.91,42.33l13.36,0L218.67,103l-13.36,0Z" style="fill:#20c981"/><path d="M254.43,42.47c12.22,3.55-10,46.55-13.26,45.61S239,38,254.43,42.47Z" style="fill:#f0f"/><path d="M244.21,40.69c12.7.78.44,47.61-3,47.4S228.13,39.68,244.21,40.69Z" style="fill:#20c981;isolation:isolate"/><path d="M249.69,41.34c12.52,2.27-5.1,47.35-8.44,46.75S233.83,38.48,249.69,41.34Z" style="fill:#1b2431"/><circle cx="240.27" cy="97.41" r="5.41" style="fill:#1b2431"/><path d="M86.29,115.34l-2.94,2.94a9.66,9.66,0,0,1-13.92,0L30.61,79.46a9.66,9.66,0,0,1,0-13.92L69.43,26.72a9.66,9.66,0,0,1,13.92,0l5.79,5.79h21.33L94,16.06a24.15,24.15,0,0,0-8.22-5.41,24.86,24.86,0,0,0-18.82,0,24.15,24.15,0,0,0-8.22,5.41L20,54.87a23.78,23.78,0,0,0-5.48,8.3,25.1,25.1,0,0,0,.07,18.74A24,24,0,0,0,20,90.13l38.81,38.81a23.64,23.64,0,0,0,8.3,5.48,25.37,25.37,0,0,0,18.67,0A23.61,23.61,0,0,0,94,128.94l13.61-13.6Z" style="fill:#20c981;isolation:isolate"/></svg>