<?xml version="1.0" encoding="utf-8"?>
<!-- Generator: Adobe Illustrator 18.1.1, SVG Export Plug-In . SVG Version: 6.00 Build 0)  -->
<svg version="1.1" id="Your_Icon" xmlns="http://www.w3.org/2000/svg" xmlns:xlink="http://www.w3.org/1999/xlink" x="0px" y="0px"
	 viewBox="-242.7 378.8 75.4 36.4" enable-background="new -242.7 378.8 75.4 36.4" xml:space="preserve">
<g>
	<g>
		<path d="M-230.2,396.6c1.9-0.5,3.8,0.6,4.3,2.5c0.5,1.9-0.6,3.8-2.5,4.3c-1.9,0.5-3.8-0.6-4.3-2.5
			C-233.1,399-232,397.1-230.2,396.6z"/>
		<path d="M-238.1,404.5c0.6,2.1,2.6,3.4,4.6,3.1c2.9,4.3,8.4,6.5,13.7,5.1c5.3-1.4,8.9-6.1,9.3-11.3c1.9-0.8,3-2.9,2.5-5
			c-0.2-0.7-0.5-1.3-1-1.8c-0.3,0-1.4-0.1-3.8-1c-5.9-2.1-15.9-1.7-21.9,1.8c-0.5,1.3-0.9,2.6-1,4
			C-237.6,400.3-238.7,402.4-238.1,404.5z M-228.5,405.7c1.2-0.3,1.3,1.1,1.3,1.1s-0.2-0.9-1.2-0.6c-0.8,0.2-0.9,1.8,0.3,2.2
			c1.2,0.4,2.5-0.9,3.9-2.6c0.9-1.1,2-1.3,2.6-1c0.4-0.6,1.4-1,2.8-0.5c2.1,0.8,3.9,1.2,4.7,0.3c0.8-0.9,0-2.2-0.8-2
			c-1,0.3-0.7,1.1-0.7,1.1s-0.6-1.2,0.6-1.6c1.2-0.4,2.7,1.5,1.5,3.1c-1.3,1.6-6.2,2.1-7.6,1.1c-0.8,1.6-5.2,3.6-7.1,2.8
			C-230.1,408.4-229.8,406-228.5,405.7z M-233,401c-0.6-2.1,0.7-4.2,2.8-4.8c2-0.5,4.1,0.6,4.7,2.5c0.3-0.7,0.9-1.3,1.7-1.5
			c0.8-0.2,1.6,0,2.2,0.5c-0.4-2,0.8-4,2.8-4.6c2.1-0.6,4.2,0.7,4.8,2.8c0.6,2.1-0.7,4.2-2.8,4.8c-1.9,0.5-3.9-0.5-4.6-2.3
			c-0.1,0-0.1,0-0.2-0.1c-0.5-0.6-1.3-0.9-2.1-0.7c-0.8,0.2-1.3,0.8-1.5,1.6c0,0.1-0.1,0.1-0.1,0.2c0.3,1.9-0.9,3.8-2.9,4.3
			C-230.3,404.3-232.5,403.1-233,401z"/>
		<path d="M-218.7,393.5c1.9-0.5,3.8,0.6,4.3,2.5c0.5,1.9-0.6,3.8-2.5,4.3c-1.9,0.5-3.8-0.6-4.3-2.5
			C-221.7,395.9-220.6,394-218.7,393.5z"/>
		<path d="M-209,394.1c-0.3,0-1.4-0.1-3.8-1c-5.9-2.1-15.9-1.7-21.9,1.8c-0.1,0-0.1,0.1-0.2,0.1c0,0-3.7-1.8,0-9.8
			c2.1-3.6,7.6-3.6,12.3-2.1c0.1-0.3,0.1-0.5,0.3-0.8c0.4-0.7,1-1.2,1.7-1.5c0.2-0.1,0.4,0,0.5,0.3c0.1,0.2,0,0.4-0.3,0.5
			c-0.6,0.2-1,0.6-1.3,1.1c-0.1,0.2-0.2,0.4-0.2,0.7c5.6,1.9,10.7,5.2,12.6,7.4c0.4,0.5,1.3,1.6,1.4,2.2c0.1,0.4-0.4,1-1,1.2
			C-208.9,394.1-208.9,394.1-209,394.1z"/>
	</g>
	<text transform="matrix(1 0 0 1 -204.7461 404.8223)" font-family="'AmericanTypewriter'" font-size="16.4735">Oui!</text>
</g>
</svg>
